<?xml version="1.0" standalone="no"?>
<!DOCTYPE svg PUBLIC "-//W3C//DTD SVG 20010904//EN"
 "http://www.w3.org/TR/2001/REC-SVG-20010904/DTD/svg10.dtd">
<svg version="1.0" xmlns="http://www.w3.org/2000/svg"
 width="256.000000pt" height="256.000000pt" viewBox="0 0 256.000000 256.000000"
 preserveAspectRatio="xMidYMid meet">

<g transform="translate(0.000000,256.000000) scale(0.100000,-0.100000)"
fill="#000000" stroke="none">
<path d="M1100 2446 c-385 -64 -705 -302 -875 -650 -266 -545 -73 -1195 451
-1513 378 -229 867 -221 1238 20 222 145 400 377 479 622 47 148 52 182 52
365 0 146 -4 189 -22 261 -113 447 -451 780 -893 880 -114 26 -320 33 -430 15z
m-406 -405 c23 -26 50 -99 81 -222 15 -57 38 -126 53 -153 24 -43 85 -106 104
-106 4 0 31 18 60 40 29 22 82 52 118 67 56 23 79 27 165 27 117 0 175 -18
282 -90 36 -24 67 -44 69 -44 2 0 22 17 45 37 52 47 84 111 109 216 39 170 80
247 129 247 l28 0 7 -210 c5 -146 3 -223 -5 -252 -19 -74 -60 -141 -120 -200
l-58 -57 -5 -233 c-3 -128 -3 -254 1 -280 5 -42 9 -48 34 -53 16 -4 29 -11 29
-16 0 -12 -6 -11 -39 6 -20 10 -31 25 -35 47 -3 18 -4 146 -1 284 l5 252 65
65 c93 94 119 154 119 277 0 253 -6 360 -21 360 -47 0 -72 -48 -123 -240 -17
-63 -42 -134 -55 -156 -27 -46 -88 -104 -110 -104 -8 0 -36 16 -61 36 -176
134 -372 136 -560 8 -35 -24 -69 -44 -74 -44 -20 0 -92 75 -116 121 -13 26
-37 100 -54 164 -40 155 -71 215 -110 215 -16 0 -18 -21 -24 -212 -7 -186 -5
-219 9 -262 24 -69 53 -112 119 -174 l56 -54 2 -266 c2 -268 -2 -312 -27 -312
-38 0 -12 -26 125 -124 81 -59 154 -114 161 -122 30 -37 62 -43 216 -41 149 2
152 3 180 28 40 37 325 241 330 236 3 -4 -76 -63 -337 -253 -33 -24 -140 -40
-167 -26 -9 6 -51 8 -92 5 l-76 -5 -60 48 c-33 27 -120 91 -193 143 -72 52
-132 98 -132 102 0 4 11 10 25 13 40 10 42 40 36 394 l-3 172 -64 64 c-40 40
-75 87 -92 123 -27 58 -27 58 -27 288 0 127 1 233 3 238 6 14 59 7 76 -12z
m281 -943 c31 -14 31 -16 1 -56 l-23 -32 -7 31 c-7 37 -8 69 -1 69 2 0 16 -5
30 -12z m638 -35 c-3 -27 -7 -49 -9 -51 -1 -2 -14 14 -28 35 l-26 38 27 12
c42 18 43 17 36 -34z m-515 -14 c112 -46 143 -79 123 -131 -8 -22 -5 -30 25
-59 l34 -33 30 29 c27 26 30 34 25 70 -7 55 14 77 116 120 46 19 84 35 85 35
2 0 16 -24 32 -54 l29 -54 -73 -73 -74 -73 0 -76 0 -76 -27 1 c-22 0 -29 -5
-31 -24 l-4 -24 -12 24 c-15 32 -50 32 -54 0 l-4 -24 -12 24 c-6 13 -20 24
-31 24 -13 0 -21 -8 -23 -24 l-4 -24 -12 24 c-15 32 -50 32 -54 0 l-4 -24 -12
24 c-7 15 -20 24 -34 23 -21 -1 -22 4 -22 76 l0 77 -74 72 -74 72 26 54 c15
29 28 54 30 54 2 1 38 -13 80 -30z m52 -410 c0 -20 -15 -26 -25 -9 -9 15 3 43
15 35 5 -3 10 -15 10 -26z m73 -5 c-3 -8 -9 -14 -13 -14 -14 0 -22 20 -16 37
5 12 9 13 21 3 7 -6 11 -18 8 -26z m69 -6 c-16 -16 -37 4 -28 28 6 16 8 16 23
1 13 -13 15 -19 5 -29z m70 0 c-16 -16 -37 4 -28 28 6 16 8 16 23 1 13 -13 15
-19 5 -29z m76 15 c-2 -10 -10 -18 -18 -18 -8 0 -16 8 -18 18 -2 12 3 17 18
17 15 0 20 -5 18 -17z m-253 -48 c0 -10 -6 -20 -12 -22 -8 -3 -13 5 -13 22 0
17 5 25 13 23 6 -3 12 -13 12 -23z m72 -9 c-4 -9 -11 -16 -17 -16 -11 0 -14
33 -3 44 11 10 26 -11 20 -28z m70 0 c-4 -9 -11 -16 -17 -16 -11 0 -14 33 -3
44 11 10 26 -11 20 -28z m70 0 c-4 -9 -11 -16 -17 -16 -11 0 -14 33 -3 44 11
10 26 -11 20 -28z m-255 2 c5 -34 50 -32 58 2 l6 25 7 -27 c9 -35 44 -38 56
-6 l8 23 7 -23 c10 -29 44 -29 55 0 l8 23 7 -23 c10 -30 44 -29 56 3 5 14 16
25 25 25 19 0 21 -70 3 -88 -15 -15 -52 -16 -42 -1 5 8 1 8 -14 0 -30 -16 -94
-13 -120 5 -17 12 -22 12 -20 2 3 -15 -69 -24 -109 -13 -20 5 -23 12 -23 50 0
32 4 45 14 45 8 0 16 -10 18 -22z"/>
<path d="M1028 999 c-43 -25 -4 -100 62 -120 32 -10 44 -9 77 7 63 31 56 53
-31 92 -82 35 -84 36 -108 21z"/>
<path d="M1413 975 c-40 -18 -73 -38 -73 -43 0 -17 45 -50 77 -57 42 -8 99 18
118 56 19 35 19 44 -1 63 -22 23 -39 20 -121 -19z"/>
<path d="M1213 803 c-8 -20 18 -95 34 -100 7 -3 16 10 21 29 9 32 11 31 26
-14 9 -30 23 -20 41 27 25 64 17 75 -55 75 -47 0 -62 -4 -67 -17z"/>
</g>
</svg>
